<svg width="26" height="26" viewBox="0 0 26 26" fill="none" xmlns="http://www.w3.org/2000/svg">
<path d="M21.3849 9.0242L15.4916 2.5242C15.3903 2.41197 15.2666 2.32219 15.1286 2.26062C14.9905 2.19905 14.8411 2.16706 14.6899 2.1667H7.10659C6.74665 2.16241 6.38939 2.22906 6.05521 2.36284C5.72103 2.49663 5.41648 2.69494 5.15895 2.94643C4.90142 3.19793 4.69595 3.49769 4.55427 3.8286C4.4126 4.15952 4.33749 4.51509 4.33325 4.87503V21.125C4.33749 21.485 4.4126 21.8405 4.55427 22.1715C4.69595 22.5024 4.90142 22.8021 5.15895 23.0536C5.41648 23.3051 5.72103 23.5034 6.05521 23.6372C6.38939 23.771 6.74665 23.8377 7.10659 23.8334H18.8933C19.2532 23.8377 19.6104 23.771 19.9446 23.6372C20.2788 23.5034 20.5834 23.3051 20.8409 23.0536C21.0984 22.8021 21.3039 22.5024 21.4456 22.1715C21.5872 21.8405 21.6623 21.485 21.6666 21.125V9.75003C21.6659 9.48154 21.5655 9.22288 21.3849 9.0242ZM19.1208 9.75003H14.8524C14.6291 9.72804 14.4233 9.6192 14.2795 9.44697C14.1356 9.27473 14.0651 9.05288 14.0833 8.8292V4.33337H14.2024L19.1208 9.75003ZM18.8933 21.6667H7.10659C7.03116 21.6711 6.9556 21.6605 6.88426 21.6357C6.81291 21.6108 6.74717 21.5721 6.69081 21.5218C6.63445 21.4715 6.58858 21.4105 6.55582 21.3424C6.52307 21.2744 6.50407 21.2005 6.49992 21.125V4.87503C6.50407 4.79959 6.52307 4.72571 6.55582 4.65763C6.58858 4.58954 6.63445 4.52859 6.69081 4.47827C6.74717 4.42795 6.81291 4.38925 6.88426 4.36438C6.9556 4.33951 7.03116 4.32897 7.10659 4.33337H11.9166V8.8292C11.8991 9.62721 12.198 10.3997 12.748 10.9782C13.298 11.5566 14.0545 11.894 14.8524 11.9167H19.4999V21.125C19.4958 21.2005 19.4768 21.2744 19.444 21.3424C19.4113 21.4105 19.3654 21.4715 19.309 21.5218C19.2527 21.5721 19.1869 21.6108 19.1156 21.6357C19.0442 21.6605 18.9687 21.6711 18.8933 21.6667Z" fill="#9E9E9E"/>
</svg>
