<svg width="1052" height="885" viewBox="0 0 1052 885" fill="none" xmlns="http://www.w3.org/2000/svg">
<g filter="url(#filter0_d_116_515)">
<path d="M52.1128 883C36.6732 883 24.9848 879.63 17.0475 872.889C9.11029 866.149 4.76111 856.744 4 844.677H29.2796C29.932 850.656 31.8891 855.331 35.151 858.701C38.5216 862.072 44.1756 863.757 52.1128 863.757C57.8755 863.757 62.4965 862.343 65.9758 859.517C69.5639 856.581 71.358 852.831 71.358 848.264C71.358 843.589 69.8358 840.219 66.7913 838.154C63.7469 836.088 57.9299 834.403 49.3402 833.098C34.1181 831.141 23.2995 827.553 16.8845 822.335C10.4694 817.008 7.26189 808.8 7.26189 797.71C7.26189 787.599 11.1218 779.282 18.8416 772.759C26.6701 766.236 36.9451 762.975 49.6664 762.975C62.8227 762.975 73.0976 765.91 80.4912 771.781C87.9936 777.652 92.2884 786.349 93.3757 797.873H69.0746C67.4437 787.545 60.9743 782.381 49.6664 782.381C44.0125 782.381 39.6633 783.577 36.6189 785.969C33.6832 788.36 32.2153 791.568 32.2153 795.59C32.2153 799.939 33.6288 803.201 36.4558 805.375C39.3915 807.441 45.2085 809.126 53.9069 810.43C68.9115 812.387 79.7845 815.921 86.5257 821.03C93.267 826.031 96.6376 834.294 96.6376 845.818C96.6376 856.473 92.5602 865.333 84.4055 872.4C76.3595 879.467 65.5953 883 52.1128 883Z" fill="black"/>
<path d="M113.542 881.206V757.267H137.191V831.957L164.591 795.916H189.707L158.719 834.729L192.154 881.206H165.406L137.191 840.926V881.206H113.542Z" fill="black"/>
<path d="M204.661 881.206V795.916H228.146V881.206H204.661ZM225.863 780.75C223.254 783.142 220.046 784.338 216.241 784.338C212.435 784.338 209.227 783.142 206.618 780.75C204.117 778.25 202.867 775.151 202.867 771.455C202.867 767.758 204.117 764.714 206.618 762.322C209.227 759.822 212.435 758.572 216.241 758.572C220.046 758.572 223.254 759.822 225.863 762.322C228.473 764.714 229.777 767.758 229.777 771.455C229.777 775.151 228.473 778.25 225.863 780.75Z" fill="black"/>
<path d="M250.531 881.206V757.267H274.017V881.206H250.531Z" fill="black"/>
<path d="M296.242 881.206V757.267H319.728V881.206H296.242Z" fill="black"/>
<path d="M392.186 883C385.771 883 380.172 881.587 375.387 878.76C370.712 875.933 367.233 872.237 364.949 867.671V881.206H341.301V757.267H364.949V809.289C367.45 804.94 371.093 801.298 375.877 798.362C380.77 795.427 386.206 793.959 392.186 793.959C403.059 793.959 411.975 797.819 418.934 805.538C425.892 813.257 429.372 823.966 429.372 837.664V838.969C429.372 852.667 425.892 863.431 418.934 871.258C411.975 879.086 403.059 883 392.186 883ZM385.173 864.572C391.697 864.572 396.698 862.398 400.178 858.049C403.657 853.7 405.397 847.395 405.397 839.132V837.827C405.397 829.456 403.548 823.096 399.852 818.747C396.155 814.29 391.208 812.061 385.01 812.061C378.595 812.061 373.485 814.29 369.679 818.747C365.982 823.096 364.134 829.456 364.134 837.827V839.132C364.134 847.503 365.982 853.863 369.679 858.212C373.376 862.452 378.541 864.572 385.173 864.572Z" fill="black"/>
<path d="M469.447 858.212C473.144 862.778 478.308 865.061 484.941 865.061C491.573 865.061 496.684 862.778 500.272 858.212C503.969 853.646 505.817 847.286 505.817 839.132V837.99C505.817 829.837 503.969 823.477 500.272 818.91C496.684 814.235 491.573 811.898 484.941 811.898C478.417 811.898 473.307 814.181 469.61 818.747C465.913 823.205 464.065 829.51 464.065 837.664V838.969C464.065 847.123 465.859 853.537 469.447 858.212ZM484.778 883C471.839 883 461.129 879.032 452.648 871.095C444.167 863.05 439.927 852.504 439.927 839.458V838.154C439.927 824.999 444.167 814.344 452.648 806.19C461.129 798.036 471.893 793.959 484.941 793.959C497.989 793.959 508.698 797.982 517.071 806.027C525.551 813.964 529.792 824.509 529.792 837.664V838.969C529.792 852.233 525.551 862.887 517.071 870.932C508.59 878.977 497.825 883 484.778 883Z" fill="black"/>
<path d="M531.451 881.206L560.645 837.664L533.408 795.916H560.482L576.465 821.52L592.122 795.916H616.586L589.349 835.87L619.359 881.206H592.122L574.182 852.504L555.752 881.206H531.451Z" fill="black"/>
<path d="M690.06 869.628H706.043C720.722 869.628 731.867 865.551 739.478 857.397C747.198 849.134 751.057 837.719 751.057 823.15V821.846C751.057 807.604 747.361 796.406 739.967 788.252C732.682 780.098 721.32 776.021 705.88 776.021H690.06V869.628ZM675.871 881.206V764.605H706.696C725.941 764.605 740.565 769.878 750.568 780.424C760.68 790.97 765.736 804.777 765.736 821.846V823.313C765.736 840.382 760.68 854.298 750.568 865.061C740.565 875.825 725.832 881.206 706.37 881.206H675.871Z" fill="black"/>
<path d="M788.453 881.206V795.916H801.99V811.246C804.926 805.918 808.514 801.842 812.754 799.015C817.103 796.188 822.866 794.666 830.042 794.449V807.169C820.691 807.604 813.678 809.778 809.003 813.692C804.328 817.606 801.99 824.509 801.99 834.403V881.206H788.453Z" fill="black"/>
<path d="M850.099 881.206V795.916H863.636V881.206H850.099ZM862.82 775.532C861.081 777.271 859.015 778.141 856.623 778.141C854.231 778.141 852.11 777.271 850.262 775.532C848.522 773.792 847.653 771.672 847.653 769.172C847.653 766.671 848.522 764.551 850.262 762.812C852.11 761.072 854.231 760.202 856.623 760.202C859.015 760.202 861.081 761.072 862.82 762.812C864.669 764.551 865.593 766.671 865.593 769.172C865.593 771.672 864.669 773.792 862.82 775.532Z" fill="black"/>
<path d="M912.708 881.206L881.72 795.916H896.399L921.678 867.508L946.632 795.916H960.658L929.996 881.206H912.708Z" fill="black"/>
<path d="M1010.98 882.674C998.8 882.674 988.851 878.76 981.131 870.932C973.52 862.996 969.715 852.504 969.715 839.458V838.154C969.715 825.325 973.411 814.833 980.805 806.679C988.307 798.526 997.93 794.449 1009.67 794.449C1020.55 794.449 1029.62 797.982 1036.91 805.049C1044.3 812.007 1048 822.607 1048 836.849V841.252H983.741C984.067 851.037 986.513 858.538 991.08 863.757C995.755 868.867 1002.44 871.421 1011.14 871.421C1024.51 871.421 1032.07 866.475 1033.81 856.581H1047.35C1045.93 864.953 1041.97 871.421 1035.44 875.988C1028.92 880.445 1020.76 882.674 1010.98 882.674ZM984.23 830.326H1034.14C1032.94 813.909 1024.79 805.701 1009.67 805.701C1002.82 805.701 997.169 807.93 992.711 812.387C988.253 816.736 985.426 822.715 984.23 830.326Z" fill="black"/>
<path d="M450.161 21.5646C482.315 9.80444 524.24 3.66152 554.867 7.68064C597.972 13.3372 626.444 45.3752 654.216 82.9627C688.159 128.903 742.29 236.84 704.97 321.486C715.286 227.37 667.064 184.604 643.211 165.246C626.343 151.557 602.714 141.417 583.071 136.618C445.484 103.005 276.237 267.073 333.062 491.358C330.955 489.069 335.039 493.377 333.062 491.358C325.479 484.584 316.606 472.883 314.245 469.676C254.002 393.612 244.071 299.609 264.515 221.28C274.091 184.591 291.478 150.109 311.53 123.122C348.776 72.9961 401.159 36.7951 450.161 21.5646Z" fill="url(#paint0_linear_116_515)"/>
<path d="M815.165 389.364C804.793 421.99 777.095 462.516 755.176 484.278C724.326 514.907 689.782 511.07 643.056 510.034C585.947 508.768 501.313 469.415 474.132 443.923C517.343 462.049 559.961 458.367 584.703 450.982C605.519 444.768 618.629 441.439 643.056 423.653C671.269 403.109 690.816 372.007 701.826 334.962C722.234 244.631 688.626 74.9393 531.084 6.40962C538.579 5.67191 558.008 5.68593 580.477 8.54476C593.226 10.1669 607.67 13.0434 620.049 16.512C628.306 18.8255 639.458 22.3209 650.868 26.9337C663.623 32.0906 676.764 38.5792 687.836 45.0682C695.133 49.1982 701.914 53.6198 708.537 58.2534C767.489 99.4942 803.694 156.183 820.365 214.479C837.936 275.921 833.888 339.182 815.165 389.364Z" fill="url(#paint1_linear_116_515)"/>
<path d="M324.821 313.712C329.901 292.076 341.406 268.696 341.406 268.696C341.406 268.696 362.4 204.988 454.205 157.947C386.029 196.929 382.731 247.443 380.54 274.931C378.994 294.329 379.529 317.313 390.402 351.191C429.603 473.333 665.404 537.281 822.278 367.2C819.805 376.27 817.738 380.976 813.496 394.277C808.38 410.317 798.711 431.939 779.746 459.24C772.969 468.996 756.403 490.274 734.183 510.299C730.242 513.85 726.831 516.621 722.788 519.863C700.124 538.031 675.423 550.884 651.439 560.785C618.159 574.524 586.407 581.066 553.878 582.311C480.35 585.127 411.405 559.107 365.242 520.878C339.96 499.941 337.681 496.375 333.062 491.358C331.409 486.539 324.647 474.479 323.54 470.978C321.691 465.134 321.153 461.771 320.062 457.563C317.897 449.215 316.375 433.443 315.962 427.073C314.043 397.411 314.984 355.602 324.821 313.712Z" fill="url(#paint2_linear_116_515)"/>
</g>
<defs>
<filter id="filter0_d_116_515" x="0" y="0" width="1052" height="885" filterUnits="userSpaceOnUse" color-interpolation-filters="sRGB">
<feFlood flood-opacity="0" result="BackgroundImageFix"/>
<feColorMatrix in="SourceAlpha" type="matrix" values="0 0 0 0 0 0 0 0 0 0 0 0 0 0 0 0 0 0 127 0" result="hardAlpha"/>
<feOffset dy="-2"/>
<feGaussianBlur stdDeviation="2"/>
<feComposite in2="hardAlpha" operator="out"/>
<feColorMatrix type="matrix" values="0 0 0 0 0 0 0 0 0 0 0 0 0 0 0 0 0 0 0.2 0"/>
<feBlend mode="normal" in2="BackgroundImageFix" result="effect1_dropShadow_116_515"/>
<feBlend mode="normal" in="SourceGraphic" in2="effect1_dropShadow_116_515" result="shape"/>
</filter>
<linearGradient id="paint0_linear_116_515" x1="526" y1="6" x2="526" y2="883" gradientUnits="userSpaceOnUse">
<stop stop-color="#383FF5"/>
<stop offset="1" stop-color="#EEADAC"/>
</linearGradient>
<linearGradient id="paint1_linear_116_515" x1="526" y1="6" x2="526" y2="883" gradientUnits="userSpaceOnUse">
<stop stop-color="#EFAEAC"/>
<stop offset="1" stop-color="#383FF5"/>
</linearGradient>
<linearGradient id="paint2_linear_116_515" x1="337.521" y1="501.017" x2="739.408" y2="239.003" gradientUnits="userSpaceOnUse">
<stop stop-color="#383FF5"/>
<stop offset="1" stop-color="#F1AFAB"/>
</linearGradient>
</defs>
</svg>
